<svg xmlns="http://www.w3.org/2000/svg" width="60" height="60" viewBox="420 1020 60 60">

<title>Tibyan Modern_Islamic Quran Page Frame</title>
<desc>Original vector ornamentation concept</desc>
<rect x="120" y="80" width="660" height="1040" rx="2" fill="none" stroke="#245B67" stroke-width="1.8"/>
<rect x="125" y="85" width="650" height="1030" rx="1" fill="none" stroke="#8BA8A7" stroke-width="1"/>
<rect x="130" y="90" width="640" height="1020" rx="1" fill="none" stroke="#245B67" stroke-width=".65" opacity=".85"/>
















































































































































































<path d="M 476.00 1050.00 Q 472.19 1059.19 468.38 1068.38 M 468.38 1068.38 Q 459.19 1072.19 450.00 1076.00 M 450.00 1076.00 Q 440.81 1072.19 431.62 1068.38 M 431.62 1068.38 Q 427.81 1059.19 424.00 1050.00 M 424.00 1050.00 Q 427.81 1040.81 431.62 1031.62 M 431.62 1031.62 Q 440.81 1027.81 450.00 1024.00 M 450.00 1024.00 Q 459.19 1027.81 468.38 1031.62 M 468.38 1031.62 Q 472.19 1040.81 476.00 1050.00 " stroke="#8BA8A7" stroke-width="1" fill="none" opacity="1" stroke-linejoin="round" stroke-linecap="round"/></svg>